# AST/ASF file generated using VICON BodyLanguage
# -----------------------------------------------
:version 1.10
:name VICON
:units
  mass 1.0
  length 0.45
  angle deg
:documentation
   .ast/.asf automatically generated from VICON data using
   VICON BodyBuilder and BodyLanguage model FoxedUp or BRILLIANT.MOD
:root
   order TX TY TZ RX RY RZ
   axis XYZ
   position 0 0 0  
   orientation 0 0 0 
:bonedata
  begin
     id 1 
     name lhipjoint
     direction 0.722297 -0.617336 0.311742 
     length 2.6635 
     axis 0 0 0  XYZ
  end
  begin
     id 2 
     name lfemur
     direction 0.34202 -0.939693 0  
     length 7.39349  
     axis 0 0 20  XYZ
    dof rx ry rz
    limits (-160.0 20.0)
           (-70.0 70.0)
           (-60.0 70.0)
  end
  begin
     id 3 
     name ltibia
     direction 0.34202 -0.939693 0   
     length 7.36294   
     axis 0 0 20   XYZ
    dof rx
    limits (-10.0 170.0)
  end
  begin
     id 4 
     name lfoot
     direction 0.104879 -0.288152 0.951824   
     length 2.16981   
     axis -90 7.62852e-016 20   XYZ
    dof rx rz
    limits (-45.0 90.0)
           (-70.0 20.0)
  end
  begin
     id 5 
     name ltoes
     direction 1.53586e-011 -4.21895e-011 1   
     length 1.08218   
     axis -90 7.62852e-016 20   XYZ
    dof rx
    limits (-90.0 20.0)
  end
  begin
     id 6 
     name rhipjoint
     direction -0.75102 -0.589393 0.297631   
     length 2.78977  
     axis 0 0 0  XYZ 
  end
  begin
     id 7 
     name rfemur
     direction -0.34202 -0.939693 0   
     length 7.46076   
     axis 0 0 -20   XYZ
    dof rx ry rz
    limits (-160.0 20.0)
           (-70.0 70.0)
           (-70.0 60.0)
  end
  begin
     id 8 
     name rtibia
     direction -0.34202 -0.939693 0   
     length 7.31726   
     axis 0 0 -20   XYZ
    dof rx
    limits (-10.0 170.0)
 end
 begin
     id 9 
     name rfoot
     direction -0.107991 -0.296704 0.948844   
     length 2.09388  
     axis -90 -7.62852e-016 -20   XYZ
    dof rx rz
    limits (-45.0 90.0)
           (-20.0 70.0)
  end
  begin
     id 10 
     name rtoes
     direction -1.53559e-011 -4.21911e-011 1   
     length 1.04433   
     axis -90 -7.62852e-016 -20   XYZ
    dof rx
    limits (-90.0 20.0)
  end
  begin
     id 11 
     name lowerback
     direction 0.0165164 0.98272 0.184358   
     length 1.71896   
     axis 0 0 0   XYZ
    dof rx ry rz
    limits (-20.0 45.0)
           (-30.0 30.0)
           (-30.0 30.0)
  end
  begin
     id 12 
     name upperback
     direction -0.00887249 0.992297 0.123566   
     length 1.71504   
     axis 0 0 0   XYZ
    dof rx ry rz
    limits (-20.0 45.0)
           (-30.0 30.0)
           (-30.0 30.0)
  end
  begin
     id 13 
     name thorax
     direction -0.0157026 0.998908 0.0440032   
     length 1.77022   
     axis 0 0 0   XYZ
    dof rx ry rz
    limits (-20.0 45.0)
           (-30.0 30.0)
           (-30.0 30.0)
  end
  begin
     id 14 
     name lowerneck
     direction -0.0238856 0.998137 0.0561411   
     length 1.89341   
     axis 0 0 0   XYZ
    dof rx ry rz
    limits (-20.0 45.0)
           (-30.0 30.0)
           (-30.0 30.0)
  end
  begin
     id 15 
     name upperneck
     direction 0.0276574 0.952253 -0.304056   
     length 1.86999   
     axis 0 0 0   XYZ
    dof rx ry rz
    limits (-20.0 45.0)
           (-30.0 30.0)
           (-30.0 30.0)
  end
  begin
     id 16
     name head
     direction 0.00800083 0.994258 -0.106712  
     length 1.91492  
     axis 0 0 0   XYZ
    dof rx ry rz
    limits (-20.0 45.0)
           (-30.0 30.0)
           (-30.0 30.0)
  end
  begin
     id 17 
     name lclavicle
     direction 0.97203 0.225407 0.06595  
     length 3.34889  
     axis 0 0 0   XYZ
    dof ry rz
    limits (-20.0 10.0)
           (0.0 20.0)
  end
  begin
     id 18 
     name lhumerus
     direction 1 -4.48973e-011 2.20267e-027   
     length 4.85645   
     axis 180 -30 -90   XYZ
    dof rx ry rz
    limits (-60.0 90.0)
           (-90.0 90.0)
           (-90.0 90.0)
  end
  begin
     id 19
     name lradius
     direction 1 -4.4897e-011 4.60472e-027   
     length 2.79874   
     axis 180 -30 -90   XYZ
    dof rx
    limits (-10.0 170.0)
  end
  begin
     id 20
     name lwrist
     direction 1 -4.48952e-011 1.14928e-026   
     length 1.39937   
     axis -6.29373e-015 90 90   XYZ
    dof ry
    limits (-180.0 0.0)
 end
  begin
     id 21 
     name lhand
     direction 1 -4.48967e-011 2.29886e-026   
     length 0.573398   
     axis -1.46689e-014 90 90   XYZ
    dof rx rz
    limits (-90.0 90.0)
           (-45.0 45.0)
  end
  begin
     id 22 
     name lfingers
     direction 1 -4.48955e-011 4.59726e-026   
     length 0.462289   
     axis -2.93383e-014 90 90   XYZ
    dof rx
    limits (0.0 90.0)
  end
  begin
     id 23
     name lthumb
     direction 0.707107 -6.34866e-011 0.707107   
     length 0.663757   
     axis -90 45 5.69224e-014   XYZ
    dof rx rz
    limits (-45.0 45.0)
           (-45.0 45.0)
  end
  begin
     id 24 
     name rclavicle
     direction -0.981571 0.157346 0.108443   
     length 3.35257  
     axis 0 0 0   XYZ 
    dof ry rz
    limits (-10.0 20.0)
           (-20.0 0.0)
  end
  begin
     id 25 
     name rhumerus
     direction -1 -4.48967e-011 8.58308e-029  
     length 4.67018   
     axis 180 30 90   XYZ
    dof rx ry rz
    limits (-90.0 60.0)
           (-90.0 90.0)
           (-90.0 90.0)
  end
  begin
     id 26 
     name rradius
     direction -1 -4.48958e-011 4.52548e-027   
     length 2.65534   
     axis 180 30 90   XYZ
    dof rx
    limits (-10.0 170.0)
  end
  begin
     id 27 
     name rwrist
     direction -1 -4.48977e-011 1.14952e-026   
     length 1.32767   
     axis -6.29373e-015 -90 -90   XYZ
    dof ry
    limits (-180.0 0.0)
  end
  begin
     id 28
     name rhand
     direction -1 -4.48924e-011 2.29804e-026   
     length 0.594069   
     axis -1.46689e-014 -90 -90   XYZ
    dof rx rz
    limits (-90.0 90.0)
           (-45.0 45.0)
  end
  begin
     id 29
     name rfingers
     direction -1 -4.48998e-011 4.59888e-026   
     length 0.478954   
     axis -2.93383e-014 -90 -90   XYZ
    dof rx
    limits (0.0 90.0)
  end
  begin
     id 30
     name rthumb
     direction -0.707107 -6.34933e-011 0.707107   
     length 0.687685   
     axis -90 -45 -5.69224e-014   XYZ
    dof rx rz
    limits (-45.0 45.0)
           (-45.0 45.0)
  end
:hierarchy
  begin
    root lhipjoint rhipjoint lowerback
    lhipjoint lfemur
    lfemur ltibia
    ltibia lfoot
    lfoot ltoes
    rhipjoint rfemur
    rfemur rtibia
    rtibia rfoot
    rfoot rtoes
    lowerback upperback
    upperback thorax
    thorax lowerneck lclavicle rclavicle
    lowerneck upperneck
    upperneck head
    lclavicle lhumerus
    lhumerus lradius
    lradius lwrist
    lwrist lhand lthumb
    lhand lfingers
    rclavicle rhumerus
    rhumerus rradius
    rradius rwrist
    rwrist rhand rthumb
    rhand rfingers
  end

#!OML:ASF E:\pregnant2\Project 1\Capture day 1\Session 1\pregnant2.ASF
:FULLY-SPECIFIED
:DEGREES
606
root -5.0844 16.942 24.3896 -331.196 6.54888 355.467
lowerback -18.2912 -0.959976 -1.64268
upperback -13.1502 -0.959727 1.95641
thorax -3.87964 -0.255231 2.86279
lowerneck -9.84252 -4.43516 -7.88248
upperneck 50.3714 -5.19269 0.994463
head 23.7792 -3.40626 0.99732
rclavicle -1.60022e-014 0
rhumerus -43.4164 18.554 -78.8849
rradius 46.3923
rwrist 2.67715
rhand -13.4592 -16.1357
rfingers 7.12502
rthumb 192.651 134.267
lclavicle -1.60022e-014 0
lhumerus -57.1763 10.7585 73.8331
lradius 28.7609
lwrist -2.406
lhand -5.45179 29.6665
lfingers 7.12502
lthumb 200.359 -121.381
rfemur -40.9235 13.4259 24.7254
rtibia 32.5286
rfoot -17.6209 -15.2299
rtoes 7.1868
lfemur -61.4894 -1.83263 -15.0799
ltibia 52.5598
lfoot -8.42489 15.0182
ltoes -15.8338
607
root -5.06365 16.9557 24.4913 -331.153 6.43725 355.421
lowerback -18.3426 -0.933363 -1.61639
upperback -13.1412 -0.92859 1.96935
thorax -3.84546 -0.241489 2.86576
lowerneck -9.87972 -4.40065 -7.85393
upperneck 50.4206 -5.0952 0.906256
head 23.8275 -3.37521 0.9614
rclavicle 2.71838e-014 -1.0138e-014
rhumerus -43.2645 18.9979 -78.9359
rradius 46.991
rwrist 2.46995
rhand -13.6676 -16.132
rfingers 7.12502
rthumb 192.45 134.259
lclavicle 2.71838e-014 -1.0138e-014
lhumerus -57.4327 10.8534 73.7751
lradius 28.8348
lwrist -2.5824
lhand -5.02275 29.3527
lfingers 7.12502
lthumb 200.772 -121.739
rfemur -40.2798 13.4073 24.8022
rtibia 31.9424
rfoot -17.642 -15.138
rtoes 6.95975
lfemur -61.5121 -2.26011 -14.3684
ltibia 50.2556
lfoot -8.1059 15.4913
ltoes -15.1209
608
root -5.04227 16.9712 24.5932 -331.118 6.31188 355.373
lowerback -18.3767 -0.902685 -1.59032
upperback -13.1359 -0.892368 1.98245
thorax -3.82458 -0.224967 2.87002
lowerneck -9.92081 -4.36767 -7.82293
upperneck 50.4642 -5.00249 0.820812
head 23.8726 -3.34506 0.925349
rclavicle 6.70898e-015 4.17448e-015
rhumerus -43.1311 19.4208 -78.9838
rradius 47.5564
rwrist 2.30158
rhand -13.8619 -16.1202
rfingers 7.12502
rthumb 192.262 134.259
lclavicle 6.70898e-015 4.17448e-015
lhumerus -57.67 10.955 73.7073
lradius 28.9034
lwrist -2.72549
lhand -4.66537 29.0987
lfingers 7.12502
lthumb 201.115 -122.031
rfemur -39.5865 13.3838 24.8788
rtibia 31.2728
rfoot -17.6179 -15.0269
rtoes 6.73381
lfemur -61.456 -2.73323 -13.5744
ltibia 47.8466
lfoot -7.82483 15.9608
ltoes -14.3947
609
root -5.02018 16.988 24.6954 -331.091 6.17029 355.328
lowerback -18.3954 -0.868666 -1.56949
upperback -13.1327 -0.851315 1.99478
thorax -3.81413 -0.205559 2.87732
lowerneck -9.96367 -4.33624 -7.79151
upperneck 50.499 -4.91472 0.739446
head 23.9103 -3.3161 0.890382
rclavicle 3.03147e-015 -3.18055e-015
rhumerus -43.0122 19.8232 -79.0276
rradius 48.0906
rwrist 2.16427
rhand -14.0317 -16.0917
rfingers 7.12502
rthumb 192.099 134.278
lclavicle 3.03147e-015 -3.18055e-015
lhumerus -57.8927 11.0484 73.6479
lradius 28.9845
lwrist -2.79927
lhand -4.38896 28.9162
lfingers 7.12502
lthumb 201.38 -122.243
rfemur -38.8525 13.3609 24.946
rtibia 30.5342
rfoot -17.5536 -14.9043
rtoes 6.50586
lfemur -61.3267 -3.25702 -12.7002
ltibia 45.3542
lfoot -7.59864 16.4265
ltoes -13.7981
610
root -4.99729 17.0059 24.7978 -331.072 6.0097 355.288
lowerback -18.4025 -0.830809 -1.55598
upperback -13.1303 -0.80447 2.00416
thorax -3.81091 -0.182796 2.88657
lowerneck -10.0092 -4.30778 -7.75717
upperneck 50.5236 -4.83422 0.660269
head 23.9394 -3.28884 0.854423
rclavicle -5.71506e-015 2.24627e-014
rhumerus -42.9068 20.2054 -79.07
rradius 48.5932
rwrist 2.05082
rhand -14.1766 -16.0347
rfingers 7.12502
rthumb 191.959 134.327
lclavicle -5.71506e-015 2.24627e-014
lhumerus -58.0938 11.1273 73.6028
lradius 29.0726
lwrist -2.79242
lhand -4.19283 28.8152
lfingers 7.12502
lthumb 201.569 -122.366
rfemur -38.0839 13.342 24.9982
rtibia 29.74
rfoot -17.4518 -14.7726
rtoes 6.26686
lfemur -61.1305 -3.84363 -11.7381
ltibia 42.8055
lfoot -7.4211 16.9054
ltoes -13.4417
611
root -4.97351 17.0242 24.9004 -331.062 5.83201 355.254
lowerback -18.3973 -0.790197 -1.54918
upperback -13.1271 -0.753348 2.01094
thorax -3.81319 -0.157524 2.89754
lowerneck -10.0563 -4.27974 -7.72255
upperneck 50.5357 -4.75842 0.588586
head 23.9569 -3.26225 0.821716
rclavicle 9.69075e-016 -1.39149e-015
rhumerus -42.8042 20.5676 -79.1099
rradius 49.0541
rwrist 1.96092
rhand -14.3008 -15.9325
rfingers 7.12502
rthumb 191.839 134.422
lclavicle 9.69075e-016 -1.39149e-015
lhumerus -58.2714 11.1938 73.5708
lradius 29.166
lwrist -2.71173
lhand -4.06212 28.7798
lfingers 7.12502
lthumb 201.694 -122.416
rfemur -37.2848 13.3288 25.0346
rtibia 28.9019
rfoot -17.3157 -14.6415
rtoes 5.99539
lfemur -60.8765 -4.51168 -10.672
ltibia 40.2337
lfoot -7.26742 17.4293
ltoes -13.3793
612
root -4.94886 17.0426 25.0032 -331.059 5.64029 355.227
lowerback -18.3851 -0.747682 -1.54607
upperback -13.1199 -0.699475 2.01372
thorax -3.81485 -0.130904 2.90672
lowerneck -10.1081 -4.25276 -7.68421
upperneck 50.5347 -4.68905 0.523521
head 23.9634 -3.23636 0.790661
rclavicle -1.02871e-014 -3.57812e-015
rhumerus -42.6976 20.9046 -79.1487
rradius 49.4745
rwrist 1.89553
rhand -14.3906 -15.8024
rfingers 7.12502
rthumb 191.752 134.547
lclavicle -1.02871e-014 -3.57812e-015
lhumerus -58.4181 11.2476 73.5479
lradius 29.2572
lwrist -2.57418
lhand -3.99311 28.7938
lfingers 7.12502
lthumb 201.761 -122.409
rfemur -36.4617 13.3266 25.0538
rtibia 28.0326
rfoot -17.1533 -14.5144
rtoes 5.71174
lfemur -60.5804 -5.28175 -9.47862
ltibia 37.6757
lfoot -7.10834 18.0246
ltoes -13.521
613
root -4.92336 17.0607 25.1061 -331.066 5.43773 355.206
lowerback -18.3658 -0.704603 -1.54718
upperback -13.1079 -0.644515 2.01373
thorax -3.81481 -0.103707 2.91546
lowerneck -10.1664 -4.22655 -7.64205
upperneck 50.5233 -4.62466 0.463488
head 23.9621 -3.21083 0.760607
rclavicle 7.1811e-015 -3.97569e-015
rhumerus -42.5838 21.2195 -79.1881
rradius 49.8516
rwrist 1.84566
rhand -14.4457 -15.6536
rfingers 7.12502
rthumb 191.699 134.693
lclavicle 7.1811e-015 -3.97569e-015
lhumerus -58.5334 11.29 73.5335
lradius 29.3455
lwrist -2.4037
lhand -3.97084 28.8373
lfingers 7.12502
lthumb 201.782 -122.368
rfemur -35.6186 13.3365 25.0568
rtibia 27.141
rfoot -16.9619 -14.4008
rtoes 5.39374
lfemur -60.2563 -6.18959 -8.12101
ltibia 35.1709
lfoot -6.9326 18.7479
ltoes -13.8105
614
root -4.89745 17.0779 25.2086 -331.071 5.23916 355.189
lowerback -18.3475 -0.666588 -1.55281
upperback -13.0925 -0.595619 2.01588
thorax -3.81019 -0.0793059 2.92809
lowerneck -10.2319 -4.1982 -7.58708
upperneck 50.5001 -4.55805 0.398217
head 23.9497 -3.18225 0.725551
rclavicle 1.34677e-014 -1.96797e-014
rhumerus -42.4494 21.5189 -79.2263
rradius 50.1832
rwrist 1.80522
rhand -14.4508 -15.5324
rfingers 7.12502
rthumb 191.694 134.814
lclavicle 1.34677e-014 -1.96797e-014
lhumerus -58.6171 11.3472 73.5041
lradius 29.4313
lwrist -2.26061
lhand -3.94833 28.9113
lfingers 7.12502
lthumb 201.804 -122.297
rfemur -34.7734 13.3561 25.0491
rtibia 26.2384
rfoot -16.7524 -14.3046
rtoes 5.06923
lfemur -59.9449 -7.27228 -6.55215
ltibia 32.7604
lfoot -6.74281 19.6435
ltoes -14.0604
615
root -4.87061 17.0942 25.3114 -331.092 5.03578 355.173
lowerback -18.3237 -0.628718 -1.55283
upperback -13.0676 -0.54796 2.01535
thorax -3.79754 -0.0563299 2.9344
lowerneck -10.2989 -4.17084 -7.5344
upperneck 50.4643 -4.49958 0.346373
head 23.9266 -3.15559 0.696991
rclavicle -6.73383e-015 -1.07344e-014
rhumerus -42.3031 21.7943 -79.2672
rradius 50.471
rwrist 1.78436
rhand -14.4111 -15.4368
rfingers 7.12502
rthumb 191.733 134.912
lclavicle -6.73383e-015 -1.07344e-014
lhumerus -58.6625 11.3953 73.4753
lradius 29.5023
lwrist -2.13864
lhand -3.94855 28.9757
lfingers 7.12502
lthumb 201.803 -122.232
rfemur -33.9121 13.3883 25.0337
rtibia 25.3404
rfoot -16.5339 -14.2235
rtoes 4.73312
lfemur -59.6471 -8.56447 -4.73901
ltibia 30.4849
lfoot -6.54843 20.7705
ltoes -14.1368
